<?xml version="1.0" encoding="utf-8"?>
<!-- Generator: Adobe Illustrator 25.2.3, SVG Export Plug-In . SVG Version: 6.00 Build 0)  -->
<svg version="1.1" id="Слой_1" xmlns="http://www.w3.org/2000/svg" xmlns:xlink="http://www.w3.org/1999/xlink" x="0px" y="0px"
	 viewBox="0 0 1440 582" style="enable-background:new 0 0 1440 582;" xml:space="preserve">
<style type="text/css">
	.st0{fill:url(#SVGID_1_);}
	.st1{fill:#FFFFFF;}
	.st2{fill:none;stroke:#5F82FF;stroke-width:3;}
	.st3{fill:url(#SVGID_2_);fill-opacity:0.4;}
	.st4{fill:none;stroke:#D8E0F7;}
	.st5{fill:none;stroke:#5E80FE;stroke-width:2;}
	.st6{fill:none;stroke:#D8E3FE;}
	.st7{fill-rule:evenodd;clip-rule:evenodd;fill:#FFFFFF;}
	.st8{fill-rule:evenodd;clip-rule:evenodd;fill:#FFFFFF;filter:url(#Adobe_OpacityMaskFilter);}
	.st9{mask:url(#path-30-inside-1_1_);fill:#D8E0F7;}
	.st10{fill:none;stroke:#5F82FF;stroke-width:4;stroke-linecap:round;stroke-linejoin:round;}
	.st11{fill-rule:evenodd;clip-rule:evenodd;fill:#5F82FF;}
	.st12{fill:#5F82FF;}
</style>
<linearGradient id="SVGID_1_" gradientUnits="userSpaceOnUse" x1="719" y1="571.276" x2="719" y2="1.276" gradientTransform="matrix(1 0 0 -1 0 583.276)">
	<stop  offset="0" style="stop-color:#F4F7FF"/>
	<stop  offset="1" style="stop-color:#F1F5FF"/>
</linearGradient>
<rect x="-1" y="12" class="st0" width="1440" height="570"/>
<g>
	<path class="st1" d="M1438.5,410c-30.7,0-55.5,24.6-55.5,55h55.5V410z"/>
</g>
<path class="st2" d="M-1,534.5c202.7,0,347.5-34.9,480.3-32.8c309.4,4.9,163.3-142.1,480.3-142.1c345.2,0,262.6-129.7,480.3-129.7"
	/>
<linearGradient id="SVGID_2_" gradientUnits="userSpaceOnUse" x1="719.5" y1="5.833" x2="719.5" y2="461.271" gradientTransform="matrix(1 0 0 -1 0 583.276)">
	<stop  offset="0" style="stop-color:#4B71FF;stop-opacity:0"/>
	<stop  offset="1" style="stop-color:#6B89F8"/>
</linearGradient>
<path class="st3" d="M479.3,501.8C346.5,499.6,201.7,534.5-1,534.5V577h1441V230c-217.8,0-135.1,129.7-480.3,129.7
	C642.6,359.7,788.7,506.7,479.3,501.8z"/>
<line class="st4" x1="923.5" y1="312" x2="923.5" y2="501"/>
<g>
	<circle class="st1" cx="923.5" cy="360.5" r="7.5"/>
	<circle class="st5" cx="923.5" cy="360.5" r="6.5"/>
</g>
<line class="st4" x1="1331.5" y1="112" x2="1331.5" y2="429"/>
<g>
	<circle class="st1" cx="1331.5" cy="246.5" r="7.5"/>
	<circle class="st5" cx="1331.5" cy="246.5" r="6.5"/>
</g>
<line class="st4" x1="514.5" y1="490" x2="514.5" y2="549"/>
<line class="st4" x1="106.5" y1="374" x2="106.5" y2="564"/>
<g>
	<circle class="st1" cx="106.5" cy="531.5" r="7.5"/>
	<circle class="st5" cx="106.5" cy="531.5" r="6.5"/>
</g>
<g>
	<path class="st1" d="M263.7,401.5c-6.5,0-11.7,5.3-11.7,11.9h23.4C275.4,406.8,270.2,401.5,263.7,401.5z"/>
</g>
<g>
	<path class="st1" d="M309.7,407.5c-9,0-16.3,7.4-16.3,16.5H326C326,414.9,318.7,407.5,309.7,407.5z"/>
</g>
<g>
	<path class="st1" d="M285.1,399.2c-13.7,0-24.8,11.1-24.8,24.8h49.6C309.9,410.3,298.8,399.2,285.1,399.2z"/>
</g>
<g>
	<path class="st1" d="M1204,497.5c-18.8,0-34,15.5-34,34.5h68C1238,512.9,1222.8,497.5,1204,497.5z"/>
</g>
<g>
	<path class="st1" d="M1180.7,468c-13.1,0-23.7,10.8-23.7,24.1h47.4C1204.4,478.8,1193.8,468,1180.7,468z"/>
</g>
<g>
	<path class="st1" d="M1135.7,480.2c-28.6,0-51.7,23.2-51.7,51.8h103.5C1187.5,503.4,1164.3,480.2,1135.7,480.2z"/>
</g>
<g>
	<path class="st1" d="M1261.9,56c-21.5,0-38.9,17.5-38.9,39h77.8C1300.8,73.5,1283.4,56,1261.9,56z"/>
</g>
<g>
	<path class="st1" d="M1278.5,89c-12.4,0-22.5,10.3-22.5,23h45C1301,99.3,1290.9,89,1278.5,89z"/>
</g>
<g>
	<path class="st1" d="M274.5,95c-12.4,0-22.5,10.3-22.5,23h45C297,105.3,286.9,95,274.5,95z"/>
</g>
<g>
	<path class="st1" d="M74,255c0-42-33.4-76-74.5-76v76H74z"/>
</g>
<g>
	<path class="st1" d="M316.1,389c-5.5,0-9.9,4.6-9.9,10.2H326C326,393.6,321.6,389,316.1,389z"/>
</g>
<g>
	<path class="st1" d="M1222.5,40c-8.6,0-15.5,7.2-15.5,16h31C1238,47.2,1231.1,40,1222.5,40z"/>
</g>
<line class="st6" x1="-1" y1="3.5" x2="1439" y2="3.5"/>
<g>
	<circle class="st1" cx="514.5" cy="497.5" r="7.5"/>
	<circle class="st5" cx="514.5" cy="497.5" r="6.5"/>
</g>
<g>
	<path class="st7" d="M561,411c0-1.7-1.3-3-3-3h-86c-1.7,0-3,1.3-3,3v57.3c0,1.7,1.3,3,3,3h36.7c1,0,1.9,0.5,2.5,1.3l1.4,2
		c1.2,1.8,3.8,1.8,5,0l1.4-2c0.6-0.8,1.5-1.3,2.5-1.3H558c1.7,0,3-1.3,3-3V411z"/>
	<defs>
		<filter id="Adobe_OpacityMaskFilter" filterUnits="userSpaceOnUse" x="468" y="407" width="94" height="69.9">
			<feColorMatrix  type="matrix" values="1 0 0 0 0  0 1 0 0 0  0 0 1 0 0  0 0 0 1 0"/>
		</filter>
	</defs>
	<mask maskUnits="userSpaceOnUse" x="468" y="407" width="94" height="69.9" id="path-30-inside-1_1_">
		<path class="st8" d="M561,411c0-1.7-1.3-3-3-3h-86c-1.7,0-3,1.3-3,3v57.3c0,1.7,1.3,3,3,3h36.7c1,0,1.9,0.5,2.5,1.3l1.4,2
			c1.2,1.8,3.8,1.8,5,0l1.4-2c0.6-0.8,1.5-1.3,2.5-1.3H558c1.7,0,3-1.3,3-3V411z"/>
	</mask>
	<path class="st9" d="M518.8,472.6L518,472L518.8,472.6z M512.5,474.6l0.8-0.6L512.5,474.6z M511.2,472.6l-0.8,0.6L511.2,472.6z
		 M472,409h86v-2h-86V409z M470,468.3V411h-2v57.3H470z M508.7,470.3H472v2h36.7V470.3z M513.3,474l-1.4-2l-1.7,1.1l1.4,2L513.3,474
		z M518,472l-1.4,2l1.7,1.1l1.4-2L518,472z M558,470.3h-36.7v2H558V470.3z M560,411v57.3h2V411H560z M558,472.3c2.2,0,4-1.8,4-4h-2
		c0,1.1-0.9,2-2,2V472.3z M519.7,473.1c0.4-0.6,1-0.9,1.7-0.9v-2c-1.3,0-2.6,0.7-3.3,1.8L519.7,473.1z M511.7,475.2
		c1.6,2.3,5,2.3,6.6,0l-1.7-1.1c-0.8,1.2-2.5,1.2-3.3,0L511.7,475.2z M508.7,472.3c0.7,0,1.3,0.3,1.7,0.9l1.7-1.1
		c-0.7-1.1-2-1.8-3.3-1.8V472.3z M468,468.3c0,2.2,1.8,4,4,4v-2c-1.1,0-2-0.9-2-2H468z M558,409c1.1,0,2,0.9,2,2h2c0-2.2-1.8-4-4-4
		V409z M472,407c-2.2,0-4,1.8-4,4h2c0-1.1,0.9-2,2-2V407z"/>
	<path class="st10" d="M498,441.2c0-9.5,7.7-17.2,17.1-17.2c1.7,0,3.4,0.3,5,0.8"/>
	<path class="st11" d="M511.4,445c2,2.1,5.3,2.1,7.4,0c2-2.1,10.5-16.5,9.7-17.2c-0.7-0.8-15.1,7.7-17.1,9.8
		C509.4,439.6,509.4,442.9,511.4,445z M515.1,442.8c0.8,0,1.5-0.7,1.5-1.5s-0.7-1.5-1.5-1.5c-0.8,0-1.5,0.7-1.5,1.5
		S514.3,442.8,515.1,442.8z"/>
	<ellipse class="st12" cx="500.2" cy="450.2" rx="1.5" ry="1.5"/>
	<ellipse class="st12" cx="506.2" cy="456.2" rx="1.5" ry="1.5"/>
	<ellipse class="st12" cx="515.1" cy="458.5" rx="1.5" ry="1.5"/>
	<ellipse class="st12" cx="524.1" cy="456.2" rx="1.5" ry="1.5"/>
	<ellipse class="st12" cx="529.3" cy="450.2" rx="1.5" ry="1.5"/>
	<ellipse class="st12" cx="531.5" cy="441.2" rx="1.5" ry="1.5"/>
</g>
</svg>
